# xmcd CD database file
#
# Track frame offsets:
#	150
#	15105
#	30541
#	43461
#	59063
#	91364
#	111945
#	129524
#	144052
#	158194
#	170865
#	196778
#	213770
#	228818
#	245861
#	260086
#
# Disc length: 3711 seconds
#
# Revision: 0
# Processed by: cddbd v1.5.2PL0 Copyright (c) Steve Scherf et al.
# Submitted via: CDex 1.70beta2
#
DISCID=de0e7d10
DTITLE=Searson [CDN - 12 - CTY) - Fade and Shine
DYEAR=2012
DGENRE=Country
TTITLE0=Pursued
TTITLE1=Beg You No More
TTITLE2=Fade and Shine
TTITLE3=Stay
TTITLE4=The Moneygall
TTITLE5=East Coaster
TTITLE6=Lay Me Down
TTITLE7=Music Man
TTITLE8=You May Say
TTITLE9=The Waltzes
TTITLE10=Galician Night
TTITLE11=The Sweet
TTITLE12=I Want You More
TTITLE13=Honey
TTITLE14=Highway of Heroes
TTITLE15=Long Winter
EXTD=YEAR: 2012
EXTT0=
EXTT1=
EXTT2=
EXTT3=
EXTT4=
EXTT5=
EXTT6=
EXTT7=
EXTT8=
EXTT9=
EXTT10=
EXTT11=
EXTT12=
EXTT13=
EXTT14=
EXTT15=
PLAYORDER=
